<?xml version="1.0" encoding="utf-8" standalone="yes"?>
<!DOCTYPE svg PUBLIC "-//W3C//DTD SVG 1.1//EN" "http://www.w3.org/Graphics/SVG/1.1/DTD/svg11.dtd">
<svg style="fill:none;stroke:none;fill-rule:evenodd;clip-rule:evenodd;stroke-linecap:round;stroke-linejoin:round;stroke-miterlimit:1.5;" version="1.1" xmlns="http://www.w3.org/2000/svg" xmlns:xlink="http://www.w3.org/1999/xlink" width="306" height="560" viewBox="0 0 306 560"><style class="text-font-style fontImports" data-font-family="Shantell Sans">@import url(https://fonts.googleapis.com/css2?family=Shantell+Sans:wght@300..800&amp;amp;display=block);</style><g id="items" style="isolation: isolate"><g id="blend" style="mix-blend-mode: normal"><g id="g-root-cp_0_g-0_1uqk5e11nqmccu-fill" data-item-order="-115057" transform="translate(20, 314)"></g><g id="g-root-cp_0_g-0_1uqk5e11nqmccu-stroke" data-item-order="-115057" transform="translate(20, 314)"><g id="cp_0_g-0_1uqk5e11nqmccu-stroke" fill="none" stroke-linecap="round" stroke-linejoin="round" stroke-miterlimit="4" stroke="#484848" stroke-width="2" stroke-opacity="1"><g><path d="M 67 10L 10 10M 127.0307 10L 72.9706 10M 187 10L 133 10"></path></g></g></g><g id="g-root-sy_0_Vector_1czwlzd1nqmbk7-fill" data-item-order="-115053" transform="translate(202, 314)"></g><g id="g-root-sy_0_Vector_1czwlzd1nqmbk7-stroke" data-item-order="-115053" transform="translate(202, 314)"><g id="sy_0_Vector_1czwlzd1nqmbk7-stroke" fill="none" stroke-linecap="round" stroke-linejoin="round" stroke-miterlimit="4" stroke="#484848" stroke-width="2" stroke-opacity="1"><g><path d="M 65 10L 10 10"></path><path d="M 59 16.5L 65.5 10L 59 3.5" stroke-dasharray="none"></path></g></g></g><g id="g-root-cp_1_g-1_zp2kp51nqm9zc-fill" data-item-order="-115050" transform="translate(49, 234)"><g id="cp_1_g-1_zp2kp51nqm9zc-fill-merged" stroke="none" fill="#dce9ff" fill-opacity="1"><g><path d="M10 41C10 23.879 23.879 10 41 10C58.121 10 72 23.879 72 41C72 58.121 58.121 72 41 72C23.879 72 10 58.121 10 41"></path></g></g></g><g id="g-root-cp_1_g-1_zp2kp51nqm9zc-stroke" data-item-order="-115050" transform="translate(49, 234)"></g><g id="g-root-cp_1_g-1_1_mdm2bt1nqmbk9-fill" data-item-order="-115045" transform="translate(77, 296)"></g><g id="g-root-cp_1_g-1_1_mdm2bt1nqmbk9-stroke" data-item-order="-115045" transform="translate(77, 296)"><g id="cp_1_g-1_1_mdm2bt1nqmbk9-stroke" fill="none" stroke-linecap="round" stroke-linejoin="round" stroke-miterlimit="4" stroke="#484848" stroke-width="2" stroke-opacity="1"><g><path d="M 13 10L 13 25M 16 28C 16 29.6569 14.6568 31 13 31C 11.3431 31 10 29.6569 10 28C 10 26.3431 11.3431 25 13 25C 14.6568 25 16 26.3431 16 28Z"></path></g></g></g><g id="g-root-cp_2_g-2_hxsk7d1nqmcci-fill" data-item-order="-115040" transform="translate(108, 333)"><g id="cp_2_g-2_hxsk7d1nqmcci-fill-merged" stroke="none" fill="#c8ffe5" fill-opacity="1"><g><path d="M72 41C72 58.121 58.121 72 41 72C23.879 72 10 58.121 10 41C10 23.879 23.879 10 41 10C58.121 10 72 23.879 72 41"></path></g></g></g><g id="g-root-cp_2_g-2_hxsk7d1nqmcci-stroke" data-item-order="-115040" transform="translate(108, 333)"></g><g id="g-root-cp_2_g-2_1_4myix51nqmarn-fill" data-item-order="-115035" transform="translate(137, 311)"></g><g id="g-root-cp_2_g-2_1_4myix51nqmarn-stroke" data-item-order="-115035" transform="translate(137, 311)"><g id="cp_2_g-2_1_4myix51nqmarn-stroke" fill="none" stroke-linecap="round" stroke-linejoin="round" stroke-miterlimit="4" stroke="#484848" stroke-width="2" stroke-opacity="1"><g><path d="M 13 31L 13 16M 16 13C 16 14.6569 14.6568 16 13 16C 11.3431 16 10 14.6569 10 13C 10 11.3431 11.3431 10 13 10C 14.6568 10 16 11.3431 16 13Z"></path></g></g></g><g id="g-root-cp_3_g-3_1qcm2ix1nqmc5g-fill" data-item-order="-115030" transform="translate(169, 234)"><g id="cp_3_g-3_1qcm2ix1nqmc5g-fill-merged" stroke="none" fill="#fff8b6" fill-opacity="1"><g><path d="M10 41C10 23.879 23.879 10 41 10C58.121 10 72 23.879 72 41C72 58.121 58.121 72 41 72C23.879 72 10 58.121 10 41"></path></g></g></g><g id="g-root-cp_3_g-3_1qcm2ix1nqmc5g-stroke" data-item-order="-115030" transform="translate(169, 234)"></g><g id="g-root-cp_3_g-3_1_1hhljd51nqm9sd-fill" data-item-order="-115025" transform="translate(197, 296)"></g><g id="g-root-cp_3_g-3_1_1hhljd51nqm9sd-stroke" data-item-order="-115025" transform="translate(197, 296)"><g id="cp_3_g-3_1_1hhljd51nqm9sd-stroke" fill="none" stroke-linecap="round" stroke-linejoin="round" stroke-miterlimit="4" stroke="#484848" stroke-width="2" stroke-opacity="1"><g><path d="M 13 10L 13 25M 16 28C 16 29.6569 14.6568 31 13 31C 11.3431 31 10 29.6569 10 28C 10 26.3431 11.3431 25 13 25C 14.6568 25 16 26.3431 16 28Z"></path></g></g></g><g id="g-root-ic_1_4myix51nqno5p-fill" data-item-order="-1296" transform="translate(62, 248)"><g id="ic_1_4myix51nqno5p-fill-merged" stroke="none" fill="#4e88e7" fill-opacity="1"><g><path d="M36.25 24.01C37.872 24.012 39.477 24.333 40.975 24.955C41.085 25.023 41.225 25.023 41.335 24.955C41.449 24.879 41.512 24.747 41.5 24.61 V12.76C41.501 12.661 41.442 12.572 41.35 12.535C41.273 12.482 41.172 12.482 41.095 12.535L28.3 22C26.89 23.404 24.61 23.404 23.2 22L10.405 12.595C10.328 12.542 10.227 12.542 10.15 12.595C10.063 12.638 10.006 12.724 10 12.82 V28.57C10 30.02 11.175 31.195 12.625 31.195 H24.82C24.959 31.203 25.09 31.126 25.15 31C27.209 26.739 31.518 24.026 36.25 24.01 M24.595 20.635C24.9 20.945 25.316 21.119 25.75 21.119C26.184 21.119 26.6 20.945 26.905 20.635L39.625 11.275C39.805 11.1 39.864 10.835 39.775 10.6C39.7 10.365 39.495 10.195 39.25 10.165 H12.25C12.004 10.199 11.796 10.367 11.71 10.6C11.633 10.838 11.696 11.1 11.875 11.275L24.595 20.635 M27.775 44.41L29.275 42.91C29.344 42.871 29.421 42.851 29.5 42.85C29.603 42.847 29.703 42.892 29.77 42.97C31.963 45.312 35.225 46.332 38.362 45.656C41.499 44.98 44.051 42.708 45.085 39.67C45.283 39.158 45.184 38.578 44.829 38.16C44.474 37.741 43.918 37.55 43.381 37.662C42.843 37.773 42.409 38.17 42.25 38.695C41.551 40.761 39.808 42.301 37.671 42.74C35.535 43.178 33.326 42.449 31.87 40.825C31.802 40.757 31.764 40.666 31.764 40.57C31.764 40.474 31.802 40.383 31.87 40.315L34.45 37.735C34.665 37.518 34.73 37.193 34.615 36.91C34.5 36.63 34.228 36.447 33.925 36.445 H27.25C26.836 36.445 26.5 36.781 26.5 37.195 V43.885C26.533 44.177 26.707 44.435 26.965 44.575C27.243 44.696 27.567 44.63 27.775 44.41 M43.18 29.23C43.105 29.295 43.009 29.332 42.91 29.335C42.807 29.334 42.71 29.29 42.64 29.215C40.447 26.887 37.197 25.876 34.071 26.548C30.945 27.22 28.398 29.477 27.355 32.5C27.157 33.012 27.256 33.592 27.611 34.01C27.966 34.429 28.522 34.62 29.059 34.508C29.597 34.397 30.031 34 30.19 33.475C30.891 31.421 32.622 29.888 34.746 29.442C36.87 28.995 39.072 29.702 40.54 31.3C40.675 31.449 40.675 31.676 40.54 31.825L38.05 34.315C37.84 34.529 37.778 34.848 37.892 35.126C38.006 35.403 38.275 35.586 38.575 35.59 H45.25C45.664 35.59 46 35.254 46 34.84 V28.21C45.998 27.907 45.815 27.635 45.535 27.52C45.254 27.445 44.954 27.506 44.725 27.685L43.18 29.23"></path></g></g></g><g id="g-root-ic_1_4myix51nqno5p-stroke" data-item-order="-1296" transform="translate(62, 248)"></g><g id="g-root-ic_1_zrj5mx1o050xz-fill" data-item-order="-1296" transform="translate(186, 248)"><g id="ic_1_zrj5mx1o050xz-fill-merged" stroke="none" fill="#e0cb15" fill-opacity="1"><g><path d="M24.355 34.75 H13.75C13.336 34.75 13 34.414 13 34 V21.25C13 20.836 13.336 20.5 13.75 20.5 H34C34.414 20.5 34.75 20.836 34.75 21.25 V24.355C35.745 24.215 36.755 24.215 37.75 24.355 V14.5C37.75 13.672 37.078 13 36.25 13 H32.5C32.293 13 32.125 12.832 32.125 12.625 V11.125C32.125 10.504 31.621 10 31 10C30.379 10 29.875 10.504 29.875 11.125 V16.75C29.875 17.371 29.371 17.875 28.75 17.875C28.129 17.875 27.625 17.371 27.625 16.75 V13.75C27.625 13.336 27.289 13 26.875 13 H20.5C20.293 13 20.125 12.832 20.125 12.625 V11.125C20.125 10.504 19.621 10 19 10C18.379 10 17.875 10.504 17.875 11.125 V16.75C17.875 17.371 17.371 17.875 16.75 17.875C16.129 17.875 15.625 17.371 15.625 16.75 V13.75C15.625 13.336 15.289 13 14.875 13 H11.5C10.672 13 10 13.672 10 14.5 V34.75C10 36.407 11.343 37.75 13 37.75 H24.355C24.215 36.755 24.215 35.745 24.355 34.75 M36.25 26.5C30.865 26.5 26.5 30.865 26.5 36.25C26.5 41.635 30.865 46 36.25 46C41.635 46 46 41.635 46 36.25C45.992 30.869 41.631 26.508 36.25 26.5 M35.125 41.875 H34C33.379 41.875 32.875 41.371 32.875 40.75C32.875 40.129 33.379 39.625 34 39.625 H37C37.428 39.63 37.798 39.328 37.879 38.908C37.96 38.488 37.729 38.07 37.33 37.915L34.24 36.67C32.931 36.117 32.158 34.754 32.355 33.347C32.552 31.941 33.67 30.842 35.08 30.67 V29.89C35.08 29.269 35.584 28.765 36.205 28.765C36.826 28.765 37.33 29.269 37.33 29.89 V30.64 H38.5C39.121 30.64 39.625 31.144 39.625 31.765C39.625 32.386 39.121 32.89 38.5 32.89 H35.5C35.011 32.89 34.615 33.286 34.615 33.775C34.609 34.139 34.831 34.468 35.17 34.6L38.26 35.845C39.569 36.398 40.342 37.761 40.145 39.168C39.948 40.574 38.83 41.673 37.42 41.845 V42.625C37.42 43.246 36.916 43.75 36.295 43.75C35.674 43.75 35.17 43.246 35.17 42.625 V41.875"></path></g></g></g><g id="g-root-ic_1_zrj5mx1o050xz-stroke" data-item-order="-1296" transform="translate(186, 248)"></g><g id="g-root-ic_1_1upwcw91o052x2-fill" data-item-order="-1296" transform="translate(122, 344)"><g id="ic_1_1upwcw91o052x2-fill-merged" stroke="none" fill="#3cc583" fill-opacity="1"><g><path d="M37.75 10.09 H18.25C17.007 10.09 16 11.097 16 12.34 V43.72C16.004 44.3 16.343 44.826 16.87 45.07C17.403 45.315 18.03 45.227 18.475 44.845L21.805 41.995C21.943 41.892 22.132 41.892 22.27 41.995L27.1 45.625C27.633 46.025 28.367 46.025 28.9 45.625L33.73 41.995C33.868 41.892 34.057 41.892 34.195 41.995L37.525 44.845C37.97 45.227 38.597 45.315 39.13 45.07C39.657 44.826 39.996 44.3 40 43.72 V12.34C40 11.097 38.993 10.09 37.75 10.09 M34.75 28.84C34.129 28.84 33.625 28.336 33.625 27.715C33.625 27.094 34.129 26.59 34.75 26.59C35.371 26.59 35.875 27.094 35.875 27.715C35.875 28.336 35.371 28.84 34.75 28.84 M35.875 33.715C35.875 34.336 35.371 34.84 34.75 34.84C34.129 34.84 33.625 34.336 33.625 33.715C33.625 33.094 34.129 32.59 34.75 32.59C35.371 32.59 35.875 33.094 35.875 33.715 M34.75 22.465C34.129 22.465 33.625 21.961 33.625 21.34C33.625 20.719 34.129 20.215 34.75 20.215C35.371 20.215 35.875 20.719 35.875 21.34C35.875 21.961 35.371 22.465 34.75 22.465 M20.5 28.84C19.879 28.84 19.375 28.336 19.375 27.715C19.375 27.094 19.879 26.59 20.5 26.59 H29.5C30.121 26.59 30.625 27.094 30.625 27.715C30.625 28.336 30.121 28.84 29.5 28.84 H20.5 M28.375 33.715C28.375 34.336 27.871 34.84 27.25 34.84 H20.5C19.879 34.84 19.375 34.336 19.375 33.715C19.375 33.094 19.879 32.59 20.5 32.59 H27.25C27.868 32.598 28.367 33.097 28.375 33.715 M19.375 21.34C19.383 20.722 19.882 20.223 20.5 20.215 H28.75C29.371 20.215 29.875 20.719 29.875 21.34C29.875 21.961 29.371 22.465 28.75 22.465 H20.5C19.879 22.465 19.375 21.961 19.375 21.34"></path></g></g></g><g id="g-root-ic_1_1upwcw91o052x2-stroke" data-item-order="-1296" transform="translate(122, 344)"></g><g id="g-root-tx_toscanap_1q7m9u11nqnq4m-fill" data-item-order="0" transform="translate(17.171875, 38)"><g id="tx_toscanap_1q7m9u11nqnq4m-fill-merged" stroke="none" fill="#484848" fill-opacity="1"><g><text style="font: bold 20px &quot;Shantell Sans&quot;, cursive; white-space: pre;" transform="translate(135.828125, 34)" font-weight="bold" font-size="20px" font-family="'Shantell Sans', cursive"><tspan x="-123.83" y="1.33" dominant-baseline="ideographic">ToscanaPineta Booking </tspan><tspan x="-115.07" y="25.33" dominant-baseline="ideographic">and Payment Process</tspan></text></g></g></g><g id="g-root-tx_toscanap_1q7m9u11nqnq4m-stroke" data-item-order="0" transform="translate(17.171875, 38)"></g><g id="g-root-tx_confirma_mahow91nqnojr-fill" data-item-order="0" transform="translate(38.364593505859375, 110)"><g id="tx_confirma_mahow91nqnojr-fill-merged" stroke="none" fill="#4e88e7" fill-opacity="1"><g><text style="font: 12px &quot;Shantell Sans&quot;, cursive; white-space: pre;" transform="translate(51.635406494140625, 24)" font-size="12px" font-family="'Shantell Sans', cursive"><tspan x="-39.64" y="0.67" dominant-baseline="ideographic">Confirmation </tspan><tspan x="-17.99" y="14.67" dominant-baseline="ideographic">Email</tspan></text></g></g></g><g id="g-root-tx_confirma_mahow91nqnojr-stroke" data-item-order="0" transform="translate(38.364593505859375, 110)"></g><g id="g-root-tx_balancep_90wls91nqnp4x-fill" data-item-order="0" transform="translate(167.20831298828125, 124)"><g id="tx_balancep_90wls91nqnp4x-fill-merged" stroke="none" fill="#e0cb15" fill-opacity="1"><g><text style="font: 12px &quot;Shantell Sans&quot;, cursive; white-space: pre;" transform="translate(49.79168701171875, 24)" font-size="12px" font-family="'Shantell Sans', cursive"><tspan x="-22.67" y="0.67" dominant-baseline="ideographic">Balance </tspan><tspan x="-37.79" y="14.67" dominant-baseline="ideographic">Payment Due</tspan></text></g></g></g><g id="g-root-tx_balancep_90wls91nqnp4x-stroke" data-item-order="0" transform="translate(167.20831298828125, 124)"></g><g id="g-root-tx_receivee_1cy16q11nqnqps-fill" data-item-order="0" transform="translate(11.74609375, 144)"><g id="tx_receivee_1cy16q11nqnqps-fill-merged" stroke="none" fill="#484848" fill-opacity="1"><g><text style="font: 10.5px &quot;Shantell Sans&quot;, cursive; white-space: pre;" transform="translate(78.25390625, 41)" font-size="10.5px" font-family="'Shantell Sans', cursive"><tspan x="-64.74" y="-5.33" dominant-baseline="ideographic">Receive email confirming </tspan><tspan x="-57.07" y="6.67" dominant-baseline="ideographic">request and REVOLUT </tspan><tspan x="-50.89" y="18.67" dominant-baseline="ideographic">account for deposit</tspan></text></g></g></g><g id="g-root-tx_receivee_1cy16q11nqnqps-stroke" data-item-order="0" transform="translate(11.74609375, 144)"></g><g id="g-root-tx_payremai_1lvjm891nqno5m-fill" data-item-order="0" transform="translate(145.7421875, 158)"><g id="tx_payremai_1lvjm891nqno5m-fill-merged" stroke="none" fill="#484848" fill-opacity="1"><g><text style="font: 10.5px &quot;Shantell Sans&quot;, cursive; white-space: pre;" transform="translate(71.2578125, 34)" font-size="10.5px" font-family="'Shantell Sans', cursive"><tspan x="-58.57" y="-5.33" dominant-baseline="ideographic">Pay remaining balance </tspan><tspan x="-51.98" y="6.67" dominant-baseline="ideographic">via bank transfer to </tspan><tspan x="-45.96" y="18.67" dominant-baseline="ideographic">REVOLUT account</tspan></text></g></g></g><g id="g-root-tx_payremai_1lvjm891nqno5m-stroke" data-item-order="0" transform="translate(145.7421875, 158)"></g><g id="g-root-tx_official_1449lqh1nqnqir-fill" data-item-order="0" transform="translate(100.41146850585938, 415)"><g id="tx_official_1449lqh1nqnqir-fill-merged" stroke="none" fill="#3cc583" fill-opacity="1"><g><text style="font: 12px &quot;Shantell Sans&quot;, cursive; white-space: pre;" transform="translate(49.588531494140625, 24)" font-size="12px" font-family="'Shantell Sans', cursive"><tspan x="-20.57" y="0.67" dominant-baseline="ideographic">Official </tspan><tspan x="-37.59" y="14.67" dominant-baseline="ideographic">Confirmation</tspan></text></g></g></g><g id="g-root-tx_official_1449lqh1nqnqir-stroke" data-item-order="0" transform="translate(100.41146850585938, 415)"></g><g id="g-root-tx_receivei_hxsk7d1nqnpqk-fill" data-item-order="0" transform="translate(60.3092041015625, 446)"><g id="tx_receivei_hxsk7d1nqnpqk-fill-merged" stroke="none" fill="#484848" fill-opacity="1"><g><text style="font: 10.5px &quot;Shantell Sans&quot;, cursive; white-space: pre;" transform="translate(89.6907958984375, 24)" font-size="10.5px" font-family="'Shantell Sans', cursive"><tspan x="-66.89" y="0.67" dominant-baseline="ideographic">Receive invoice confirming </tspan><tspan x="-74.1" y="12.67" dominant-baseline="ideographic">stay after deposit is received</tspan></text></g></g></g><g id="g-root-tx_receivei_hxsk7d1nqnpqk-stroke" data-item-order="0" transform="translate(60.3092041015625, 446)"></g></g></g></svg>